<mxfile host="Electron" modified="2023-05-29T15:28:32.680Z" agent="Mozilla/5.0 (Windows NT 10.0; Win64; x64) AppleWebKit/537.36 (KHTML, like Gecko) draw.io/21.2.8 Chrome/112.0.5615.165 Electron/24.2.0 Safari/537.36" etag="7I4ZoMbRQK0POZdHOJv2" version="21.2.8" type="device">
  <diagram name="Página-1" id="JItOXhHfHhVLd4xdyImz">
    <mxGraphModel dx="1668" dy="974" grid="1" gridSize="10" guides="1" tooltips="1" connect="1" arrows="1" fold="1" page="1" pageScale="1" pageWidth="827" pageHeight="1169" math="0" shadow="0">
      <root>
        <mxCell id="0" />
        <mxCell id="1" parent="0" />
        <mxCell id="W45Ada4BPY1trqqVsCWw-1" value="CASO DE PRUEBA&amp;nbsp; 1: REGISTRO DE USUARIOS" style="rounded=0;whiteSpace=wrap;html=1;fillColor=#cce5ff;strokeColor=#36393d;" parent="1" vertex="1">
          <mxGeometry x="189" y="50" width="461" height="30" as="geometry" />
        </mxCell>
        <mxCell id="W45Ada4BPY1trqqVsCWw-2" value="&lt;font style=&quot;font-size: 11px;&quot;&gt;&lt;b&gt;OBJETIVO&lt;/b&gt;&lt;/font&gt;" style="rounded=0;whiteSpace=wrap;html=1;align=left;" parent="1" vertex="1">
          <mxGeometry x="189" y="80" width="120" height="30" as="geometry" />
        </mxCell>
        <mxCell id="W45Ada4BPY1trqqVsCWw-3" value="&lt;font style=&quot;font-size: 11px;&quot;&gt;Añadir a la base de datos un Usuario&lt;/font&gt;" style="rounded=0;whiteSpace=wrap;html=1;align=left;" parent="1" vertex="1">
          <mxGeometry x="309" y="80" width="341" height="30" as="geometry" />
        </mxCell>
        <mxCell id="W45Ada4BPY1trqqVsCWw-4" value="&lt;font style=&quot;font-size: 11px;&quot;&gt;&lt;b&gt;PRECONDICIONES&lt;/b&gt;&lt;/font&gt;" style="rounded=0;whiteSpace=wrap;html=1;align=left;" parent="1" vertex="1">
          <mxGeometry x="189" y="110" width="120" height="30" as="geometry" />
        </mxCell>
        <mxCell id="W45Ada4BPY1trqqVsCWw-5" value="&lt;span style=&quot;font-size: 11px;&quot;&gt;Iniciar la app y entrar en la pantalla de registro&lt;/span&gt;" style="rounded=0;whiteSpace=wrap;html=1;align=left;" parent="1" vertex="1">
          <mxGeometry x="309" y="110" width="341" height="30" as="geometry" />
        </mxCell>
        <mxCell id="W45Ada4BPY1trqqVsCWw-6" value="&lt;font style=&quot;font-size: 11px;&quot;&gt;&lt;b&gt;PASO&lt;/b&gt;&lt;/font&gt;" style="rounded=0;whiteSpace=wrap;html=1;align=left;" parent="1" vertex="1">
          <mxGeometry x="189" y="140" width="120" height="30" as="geometry" />
        </mxCell>
        <mxCell id="W45Ada4BPY1trqqVsCWw-7" value="&lt;span style=&quot;font-size: 11px;&quot;&gt;DATOS&lt;/span&gt;" style="rounded=0;whiteSpace=wrap;html=1;align=left;" parent="1" vertex="1">
          <mxGeometry x="189" y="170" width="120" height="30" as="geometry" />
        </mxCell>
        <mxCell id="W45Ada4BPY1trqqVsCWw-8" value="&lt;span style=&quot;font-size: 11px;&quot;&gt;&lt;b&gt;RESULTADO&lt;/b&gt;&lt;/span&gt;" style="rounded=0;whiteSpace=wrap;html=1;align=left;" parent="1" vertex="1">
          <mxGeometry x="189" y="200" width="120" height="30" as="geometry" />
        </mxCell>
        <mxCell id="W45Ada4BPY1trqqVsCWw-10" value="&lt;span style=&quot;font-size: 11px;&quot;&gt;&lt;b&gt;OBTENIDO&lt;/b&gt;&lt;/span&gt;" style="rounded=0;whiteSpace=wrap;html=1;" parent="1" vertex="1">
          <mxGeometry x="480" y="140" width="170" height="30" as="geometry" />
        </mxCell>
        <mxCell id="W45Ada4BPY1trqqVsCWw-12" value="&lt;span style=&quot;font-size: 11px;&quot;&gt;&lt;b&gt;ESPERADO&lt;/b&gt;&lt;/span&gt;" style="rounded=0;whiteSpace=wrap;html=1;" parent="1" vertex="1">
          <mxGeometry x="309" y="140" width="171" height="30" as="geometry" />
        </mxCell>
        <mxCell id="W45Ada4BPY1trqqVsCWw-14" value="&lt;span style=&quot;font-size: 11px;&quot;&gt;Registrado correctamente&lt;/span&gt;" style="rounded=0;whiteSpace=wrap;html=1;" parent="1" vertex="1">
          <mxGeometry x="309" y="170" width="171" height="30" as="geometry" />
        </mxCell>
        <mxCell id="W45Ada4BPY1trqqVsCWw-15" value="&lt;span style=&quot;font-size: 11px;&quot;&gt;Registrado correctamente&lt;/span&gt;" style="rounded=0;whiteSpace=wrap;html=1;" parent="1" vertex="1">
          <mxGeometry x="480" y="170" width="170" height="30" as="geometry" />
        </mxCell>
        <mxCell id="W45Ada4BPY1trqqVsCWw-17" value="&lt;span style=&quot;font-size: 11px;&quot;&gt;Prueba correcta&lt;/span&gt;" style="rounded=0;whiteSpace=wrap;html=1;align=left;" parent="1" vertex="1">
          <mxGeometry x="309" y="200" width="341" height="30" as="geometry" />
        </mxCell>
        <mxCell id="W45Ada4BPY1trqqVsCWw-18" value="CASO DE PRUEBA&amp;nbsp; 2: AUTENTICACIÓN DE USUARIOS" style="rounded=0;whiteSpace=wrap;html=1;fillColor=#cce5ff;strokeColor=#36393d;" parent="1" vertex="1">
          <mxGeometry x="189" y="280" width="461" height="30" as="geometry" />
        </mxCell>
        <mxCell id="W45Ada4BPY1trqqVsCWw-19" value="&lt;font style=&quot;font-size: 11px;&quot;&gt;&lt;b&gt;OBJETIVO&lt;/b&gt;&lt;/font&gt;" style="rounded=0;whiteSpace=wrap;html=1;align=left;" parent="1" vertex="1">
          <mxGeometry x="189" y="310" width="120" height="30" as="geometry" />
        </mxCell>
        <mxCell id="W45Ada4BPY1trqqVsCWw-20" value="&lt;span style=&quot;font-size: 11px;&quot;&gt;Iniciar sesion en la aplicación&lt;/span&gt;" style="rounded=0;whiteSpace=wrap;html=1;align=left;" parent="1" vertex="1">
          <mxGeometry x="309" y="310" width="341" height="30" as="geometry" />
        </mxCell>
        <mxCell id="W45Ada4BPY1trqqVsCWw-21" value="&lt;font style=&quot;font-size: 11px;&quot;&gt;&lt;b&gt;PRECONDICIONES&lt;/b&gt;&lt;/font&gt;" style="rounded=0;whiteSpace=wrap;html=1;align=left;" parent="1" vertex="1">
          <mxGeometry x="189" y="340" width="120" height="30" as="geometry" />
        </mxCell>
        <mxCell id="W45Ada4BPY1trqqVsCWw-22" value="&lt;span style=&quot;font-size: 11px;&quot;&gt;Disponer de un usuario creado con nombre y contraseña&lt;/span&gt;" style="rounded=0;whiteSpace=wrap;html=1;align=left;" parent="1" vertex="1">
          <mxGeometry x="309" y="340" width="341" height="30" as="geometry" />
        </mxCell>
        <mxCell id="W45Ada4BPY1trqqVsCWw-23" value="&lt;font style=&quot;font-size: 11px;&quot;&gt;&lt;b&gt;PASO&lt;/b&gt;&lt;/font&gt;" style="rounded=0;whiteSpace=wrap;html=1;align=left;" parent="1" vertex="1">
          <mxGeometry x="189" y="370" width="120" height="30" as="geometry" />
        </mxCell>
        <mxCell id="W45Ada4BPY1trqqVsCWw-24" value="&lt;span style=&quot;font-size: 11px;&quot;&gt;DATOS&lt;/span&gt;" style="rounded=0;whiteSpace=wrap;html=1;align=left;" parent="1" vertex="1">
          <mxGeometry x="189" y="400" width="120" height="30" as="geometry" />
        </mxCell>
        <mxCell id="W45Ada4BPY1trqqVsCWw-25" value="&lt;span style=&quot;font-size: 11px;&quot;&gt;&lt;b&gt;RESULTADO&lt;/b&gt;&lt;/span&gt;" style="rounded=0;whiteSpace=wrap;html=1;align=left;" parent="1" vertex="1">
          <mxGeometry x="189" y="430" width="120" height="30" as="geometry" />
        </mxCell>
        <mxCell id="W45Ada4BPY1trqqVsCWw-26" value="&lt;span style=&quot;font-size: 11px;&quot;&gt;&lt;b&gt;OBTENIDO&lt;/b&gt;&lt;/span&gt;" style="rounded=0;whiteSpace=wrap;html=1;" parent="1" vertex="1">
          <mxGeometry x="480" y="370" width="170" height="30" as="geometry" />
        </mxCell>
        <mxCell id="W45Ada4BPY1trqqVsCWw-27" value="&lt;span style=&quot;font-size: 11px;&quot;&gt;&lt;b&gt;ESPERADO&lt;/b&gt;&lt;/span&gt;" style="rounded=0;whiteSpace=wrap;html=1;" parent="1" vertex="1">
          <mxGeometry x="309" y="370" width="171" height="30" as="geometry" />
        </mxCell>
        <mxCell id="W45Ada4BPY1trqqVsCWw-28" value="&lt;span style=&quot;font-size: 11px;&quot;&gt;Inicio de sesion correcto&lt;/span&gt;" style="rounded=0;whiteSpace=wrap;html=1;" parent="1" vertex="1">
          <mxGeometry x="309" y="400" width="171" height="30" as="geometry" />
        </mxCell>
        <mxCell id="W45Ada4BPY1trqqVsCWw-29" value="&lt;span style=&quot;font-size: 11px;&quot;&gt;Erro en el inicio de sesión&lt;/span&gt;" style="rounded=0;whiteSpace=wrap;html=1;" parent="1" vertex="1">
          <mxGeometry x="480" y="400" width="170" height="30" as="geometry" />
        </mxCell>
        <mxCell id="W45Ada4BPY1trqqVsCWw-30" value="&lt;span style=&quot;font-size: 11px;&quot;&gt;Prueba incorrecta&lt;/span&gt;" style="rounded=0;whiteSpace=wrap;html=1;align=left;" parent="1" vertex="1">
          <mxGeometry x="309" y="430" width="341" height="30" as="geometry" />
        </mxCell>
        <mxCell id="W45Ada4BPY1trqqVsCWw-31" value="&lt;span style=&quot;font-size: 11px;&quot;&gt;&lt;b&gt;SOLUCIÓN&lt;/b&gt;&lt;/span&gt;" style="rounded=0;whiteSpace=wrap;html=1;align=left;" parent="1" vertex="1">
          <mxGeometry x="189" y="460" width="120" height="30" as="geometry" />
        </mxCell>
        <mxCell id="W45Ada4BPY1trqqVsCWw-32" value="&lt;span style=&quot;font-size: 11px;&quot;&gt;Revisar credenciales.&lt;/span&gt;" style="rounded=0;whiteSpace=wrap;html=1;align=left;" parent="1" vertex="1">
          <mxGeometry x="309" y="460" width="341" height="30" as="geometry" />
        </mxCell>
        <mxCell id="W45Ada4BPY1trqqVsCWw-33" value="CASO DE PRUEBA&amp;nbsp; 3: REALIZAR RESERVA" style="rounded=0;whiteSpace=wrap;html=1;fillColor=#cce5ff;strokeColor=#36393d;" parent="1" vertex="1">
          <mxGeometry x="189" y="530" width="461" height="30" as="geometry" />
        </mxCell>
        <mxCell id="W45Ada4BPY1trqqVsCWw-34" value="&lt;font style=&quot;font-size: 11px;&quot;&gt;&lt;b&gt;OBJETIVO&lt;/b&gt;&lt;/font&gt;" style="rounded=0;whiteSpace=wrap;html=1;align=left;" parent="1" vertex="1">
          <mxGeometry x="189" y="560" width="120" height="30" as="geometry" />
        </mxCell>
        <mxCell id="W45Ada4BPY1trqqVsCWw-35" value="&lt;span style=&quot;font-size: 11px;&quot;&gt;Añadir a la base de datos una reserva&lt;/span&gt;" style="rounded=0;whiteSpace=wrap;html=1;align=left;" parent="1" vertex="1">
          <mxGeometry x="309" y="560" width="341" height="30" as="geometry" />
        </mxCell>
        <mxCell id="W45Ada4BPY1trqqVsCWw-36" value="&lt;font style=&quot;font-size: 11px;&quot;&gt;&lt;b&gt;PRECONDICIONES&lt;/b&gt;&lt;/font&gt;" style="rounded=0;whiteSpace=wrap;html=1;align=left;" parent="1" vertex="1">
          <mxGeometry x="189" y="590" width="120" height="30" as="geometry" />
        </mxCell>
        <mxCell id="W45Ada4BPY1trqqVsCWw-37" value="&lt;span style=&quot;font-size: 11px;&quot;&gt;Iniciar sesión&lt;/span&gt;" style="rounded=0;whiteSpace=wrap;html=1;align=left;" parent="1" vertex="1">
          <mxGeometry x="309" y="590" width="341" height="30" as="geometry" />
        </mxCell>
        <mxCell id="W45Ada4BPY1trqqVsCWw-38" value="&lt;font style=&quot;font-size: 11px;&quot;&gt;&lt;b&gt;PASO&lt;/b&gt;&lt;/font&gt;" style="rounded=0;whiteSpace=wrap;html=1;align=left;" parent="1" vertex="1">
          <mxGeometry x="189" y="620" width="120" height="30" as="geometry" />
        </mxCell>
        <mxCell id="W45Ada4BPY1trqqVsCWw-39" value="&lt;span style=&quot;font-size: 11px;&quot;&gt;DATOS&lt;/span&gt;" style="rounded=0;whiteSpace=wrap;html=1;align=left;" parent="1" vertex="1">
          <mxGeometry x="189" y="650" width="120" height="30" as="geometry" />
        </mxCell>
        <mxCell id="W45Ada4BPY1trqqVsCWw-40" value="&lt;span style=&quot;font-size: 11px;&quot;&gt;&lt;b&gt;RESULTADO&lt;/b&gt;&lt;/span&gt;" style="rounded=0;whiteSpace=wrap;html=1;align=left;" parent="1" vertex="1">
          <mxGeometry x="189" y="680" width="120" height="30" as="geometry" />
        </mxCell>
        <mxCell id="W45Ada4BPY1trqqVsCWw-41" value="&lt;span style=&quot;font-size: 11px;&quot;&gt;&lt;b&gt;OBTENIDO&lt;/b&gt;&lt;/span&gt;" style="rounded=0;whiteSpace=wrap;html=1;" parent="1" vertex="1">
          <mxGeometry x="480" y="620" width="170" height="30" as="geometry" />
        </mxCell>
        <mxCell id="W45Ada4BPY1trqqVsCWw-42" value="&lt;span style=&quot;font-size: 11px;&quot;&gt;&lt;b&gt;ESPERADO&lt;/b&gt;&lt;/span&gt;" style="rounded=0;whiteSpace=wrap;html=1;" parent="1" vertex="1">
          <mxGeometry x="309" y="620" width="171" height="30" as="geometry" />
        </mxCell>
        <mxCell id="W45Ada4BPY1trqqVsCWw-43" value="&lt;span style=&quot;font-size: 11px;&quot;&gt;Reserva realizada correctamente&lt;/span&gt;" style="rounded=0;whiteSpace=wrap;html=1;" parent="1" vertex="1">
          <mxGeometry x="309" y="650" width="171" height="30" as="geometry" />
        </mxCell>
        <mxCell id="W45Ada4BPY1trqqVsCWw-48" value="&lt;span style=&quot;font-size: 11px;&quot;&gt;Reserva realizada correctamente&lt;/span&gt;" style="rounded=0;whiteSpace=wrap;html=1;" parent="1" vertex="1">
          <mxGeometry x="480" y="650" width="170" height="30" as="geometry" />
        </mxCell>
        <mxCell id="W45Ada4BPY1trqqVsCWw-49" value="&lt;span style=&quot;font-size: 11px;&quot;&gt;Prueba correcta&lt;/span&gt;" style="rounded=0;whiteSpace=wrap;html=1;align=left;" parent="1" vertex="1">
          <mxGeometry x="309" y="680" width="341" height="30" as="geometry" />
        </mxCell>
        <mxCell id="RMJzm-4BUJETkvTrb-Ql-1" value="CASO DE PRUEBA&amp;nbsp; 4: VISUALIZAR RESERVA" style="rounded=0;whiteSpace=wrap;html=1;fillColor=#cce5ff;strokeColor=#36393d;" vertex="1" parent="1">
          <mxGeometry x="189" y="760" width="461" height="30" as="geometry" />
        </mxCell>
        <mxCell id="RMJzm-4BUJETkvTrb-Ql-2" value="&lt;font style=&quot;font-size: 11px;&quot;&gt;&lt;b&gt;OBJETIVO&lt;/b&gt;&lt;/font&gt;" style="rounded=0;whiteSpace=wrap;html=1;align=left;" vertex="1" parent="1">
          <mxGeometry x="189" y="790" width="120" height="30" as="geometry" />
        </mxCell>
        <mxCell id="RMJzm-4BUJETkvTrb-Ql-3" value="&lt;span style=&quot;font-size: 11px;&quot;&gt;Mostrar el QR y el comntenido del mismo&lt;/span&gt;" style="rounded=0;whiteSpace=wrap;html=1;align=left;" vertex="1" parent="1">
          <mxGeometry x="309" y="790" width="341" height="30" as="geometry" />
        </mxCell>
        <mxCell id="RMJzm-4BUJETkvTrb-Ql-4" value="&lt;font style=&quot;font-size: 11px;&quot;&gt;&lt;b&gt;PRECONDICIONES&lt;/b&gt;&lt;/font&gt;" style="rounded=0;whiteSpace=wrap;html=1;align=left;" vertex="1" parent="1">
          <mxGeometry x="189" y="820" width="120" height="30" as="geometry" />
        </mxCell>
        <mxCell id="RMJzm-4BUJETkvTrb-Ql-5" value="&lt;span style=&quot;font-size: 11px;&quot;&gt;Realizar una reserva&lt;/span&gt;" style="rounded=0;whiteSpace=wrap;html=1;align=left;" vertex="1" parent="1">
          <mxGeometry x="309" y="820" width="341" height="30" as="geometry" />
        </mxCell>
        <mxCell id="RMJzm-4BUJETkvTrb-Ql-6" value="&lt;font style=&quot;font-size: 11px;&quot;&gt;&lt;b&gt;PASO&lt;/b&gt;&lt;/font&gt;" style="rounded=0;whiteSpace=wrap;html=1;align=left;" vertex="1" parent="1">
          <mxGeometry x="189" y="850" width="120" height="30" as="geometry" />
        </mxCell>
        <mxCell id="RMJzm-4BUJETkvTrb-Ql-7" value="&lt;span style=&quot;font-size: 11px;&quot;&gt;DATOS&lt;/span&gt;" style="rounded=0;whiteSpace=wrap;html=1;align=left;" vertex="1" parent="1">
          <mxGeometry x="189" y="880" width="120" height="30" as="geometry" />
        </mxCell>
        <mxCell id="RMJzm-4BUJETkvTrb-Ql-8" value="&lt;span style=&quot;font-size: 11px;&quot;&gt;&lt;b&gt;RESULTADO&lt;/b&gt;&lt;/span&gt;" style="rounded=0;whiteSpace=wrap;html=1;align=left;" vertex="1" parent="1">
          <mxGeometry x="189" y="910" width="120" height="30" as="geometry" />
        </mxCell>
        <mxCell id="RMJzm-4BUJETkvTrb-Ql-9" value="&lt;span style=&quot;font-size: 11px;&quot;&gt;&lt;b&gt;OBTENIDO&lt;/b&gt;&lt;/span&gt;" style="rounded=0;whiteSpace=wrap;html=1;" vertex="1" parent="1">
          <mxGeometry x="480" y="850" width="170" height="30" as="geometry" />
        </mxCell>
        <mxCell id="RMJzm-4BUJETkvTrb-Ql-10" value="&lt;span style=&quot;font-size: 11px;&quot;&gt;&lt;b&gt;ESPERADO&lt;/b&gt;&lt;/span&gt;" style="rounded=0;whiteSpace=wrap;html=1;" vertex="1" parent="1">
          <mxGeometry x="309" y="850" width="171" height="30" as="geometry" />
        </mxCell>
        <mxCell id="RMJzm-4BUJETkvTrb-Ql-11" value="&lt;span style=&quot;font-size: 11px;&quot;&gt;Obtener los datos de una reserva&lt;/span&gt;" style="rounded=0;whiteSpace=wrap;html=1;" vertex="1" parent="1">
          <mxGeometry x="309" y="880" width="171" height="30" as="geometry" />
        </mxCell>
        <mxCell id="RMJzm-4BUJETkvTrb-Ql-12" value="&lt;span style=&quot;font-size: 11px;&quot;&gt;Datos de la reserva&lt;/span&gt;" style="rounded=0;whiteSpace=wrap;html=1;" vertex="1" parent="1">
          <mxGeometry x="480" y="880" width="170" height="30" as="geometry" />
        </mxCell>
        <mxCell id="RMJzm-4BUJETkvTrb-Ql-13" value="&lt;span style=&quot;font-size: 11px;&quot;&gt;Prueba correcta&lt;/span&gt;" style="rounded=0;whiteSpace=wrap;html=1;align=left;" vertex="1" parent="1">
          <mxGeometry x="309" y="910" width="341" height="30" as="geometry" />
        </mxCell>
      </root>
    </mxGraphModel>
  </diagram>
</mxfile>
